<svg xmlns="http://www.w3.org/2000/svg" width="21.462" height="17.438" viewBox="0 0 21.462 17.438"><defs><style>.a{fill:#1da1f1;}</style></defs><path class="a" d="M21.462,50.064a9.174,9.174,0,0,1-2.535.695,4.375,4.375,0,0,0,1.936-2.432,8.793,8.793,0,0,1-2.79,1.065A4.4,4.4,0,0,0,10.461,52.4a4.53,4.53,0,0,0,.1,1,12.454,12.454,0,0,1-9.069-4.6,4.4,4.4,0,0,0,1.352,5.881,4.345,4.345,0,0,1-1.988-.542v.048a4.42,4.42,0,0,0,3.525,4.323,4.392,4.392,0,0,1-1.154.145,3.891,3.891,0,0,1-.833-.075,4.442,4.442,0,0,0,4.111,3.065,8.841,8.841,0,0,1-5.455,1.877A8.241,8.241,0,0,1,0,63.463a12.387,12.387,0,0,0,6.75,1.975,12.437,12.437,0,0,0,12.523-12.52c0-.195-.007-.382-.016-.569A8.778,8.778,0,0,0,21.462,50.064Z" transform="translate(0 -48)"/></svg>